<mxfile host="65bd71144e">
    <diagram id="cqooIp5l22o7zoIYBhxo" name="Page-1">
        <mxGraphModel dx="2144" dy="1347" grid="1" gridSize="10" guides="1" tooltips="1" connect="1" arrows="1" fold="1" page="0" pageScale="1" pageWidth="850" pageHeight="1100" math="0" shadow="0">
            <root>
                <mxCell id="0"/>
                <mxCell id="1" parent="0"/>
                <mxCell id="54" value="" style="rounded=0;whiteSpace=wrap;html=1;fontSize=8;" vertex="1" parent="1">
                    <mxGeometry x="-140" y="1030" width="160" height="260" as="geometry"/>
                </mxCell>
                <mxCell id="5" style="edgeStyle=none;html=1;exitX=0.5;exitY=1;exitDx=0;exitDy=0;entryX=0.5;entryY=0;entryDx=0;entryDy=0;fontSize=8;" edge="1" parent="1" source="2" target="4">
                    <mxGeometry relative="1" as="geometry"/>
                </mxCell>
                <mxCell id="2" value="&lt;b&gt;A new patient is generated&lt;br&gt;&lt;br&gt;&lt;br&gt;&lt;/b&gt;" style="rounded=0;whiteSpace=wrap;html=1;" vertex="1" parent="1">
                    <mxGeometry x="100" y="100" width="230" height="60" as="geometry"/>
                </mxCell>
                <mxCell id="3" value="&lt;b&gt;&lt;i&gt;&lt;font style=&quot;font-size: 8px;&quot;&gt;The patient object records the current day, hour, month, and quarter, as well as the simulation date in datetime format and whether the day was a weekday&lt;/font&gt;&lt;/i&gt;&lt;br&gt;&lt;/b&gt;" style="rounded=0;whiteSpace=wrap;html=1;" vertex="1" parent="1">
                    <mxGeometry x="355" y="100" width="225" height="50" as="geometry"/>
                </mxCell>
                <mxCell id="9" style="edgeStyle=orthogonalEdgeStyle;html=1;exitX=1;exitY=0.5;exitDx=0;exitDy=0;entryX=0.5;entryY=0;entryDx=0;entryDy=0;fontSize=8;" edge="1" parent="1" source="4" target="7">
                    <mxGeometry relative="1" as="geometry"/>
                </mxCell>
                <mxCell id="10" style="edgeStyle=orthogonalEdgeStyle;html=1;exitX=0;exitY=0.5;exitDx=0;exitDy=0;entryX=0.25;entryY=0;entryDx=0;entryDy=0;fontSize=8;" edge="1" parent="1" source="4" target="6">
                    <mxGeometry relative="1" as="geometry"/>
                </mxCell>
                <mxCell id="11" style="edgeStyle=orthogonalEdgeStyle;html=1;exitX=0.5;exitY=1;exitDx=0;exitDy=0;entryX=0.5;entryY=0;entryDx=0;entryDy=0;fontSize=8;" edge="1" parent="1" source="4" target="8">
                    <mxGeometry relative="1" as="geometry"/>
                </mxCell>
                <mxCell id="90" style="edgeStyle=orthogonalEdgeStyle;html=1;exitX=0;exitY=0.25;exitDx=0;exitDy=0;dashed=1;dashPattern=1 1;fontSize=8;fontColor=#0d0d0d;entryX=0.75;entryY=1;entryDx=0;entryDy=0;" edge="1" parent="1" source="4" target="73">
                    <mxGeometry relative="1" as="geometry">
                        <mxPoint x="-240" y="180" as="targetPoint"/>
                        <Array as="points">
                            <mxPoint x="40" y="215"/>
                            <mxPoint x="40" y="120"/>
                            <mxPoint x="-215" y="120"/>
                        </Array>
                    </mxGeometry>
                </mxCell>
                <mxCell id="95" style="edgeStyle=orthogonalEdgeStyle;html=1;exitX=0;exitY=0.25;exitDx=0;exitDy=0;strokeColor=#1EA1C2;fontSize=8;fontColor=#0d0d0d;" edge="1" parent="1" source="4" target="91">
                    <mxGeometry relative="1" as="geometry"/>
                </mxCell>
                <mxCell id="4" value="&lt;b&gt;The AMPDS Card for the patient is generated&lt;br&gt;&lt;/b&gt;" style="rounded=0;whiteSpace=wrap;html=1;" vertex="1" parent="1">
                    <mxGeometry x="100" y="200" width="230" height="60" as="geometry"/>
                </mxCell>
                <mxCell id="6" value="&lt;b&gt;The age of the patient is generated&lt;/b&gt;&lt;br&gt;&lt;br&gt;&lt;i style=&quot;&quot;&gt;&lt;font style=&quot;font-size: 8px;&quot;&gt;The age of the patient is based on the AMPDS card&lt;/font&gt;&lt;/i&gt;" style="rounded=0;whiteSpace=wrap;html=1;" vertex="1" parent="1">
                    <mxGeometry x="-30" y="340" width="230" height="60" as="geometry"/>
                </mxCell>
                <mxCell id="109" style="edgeStyle=orthogonalEdgeStyle;html=1;exitX=1;exitY=0.5;exitDx=0;exitDy=0;strokeColor=#FFFFFF;fontSize=10;fontColor=#FFFFFF;dashed=1;dashPattern=1 1;" edge="1" parent="1" source="7" target="105">
                    <mxGeometry relative="1" as="geometry"/>
                </mxCell>
                <mxCell id="133" style="edgeStyle=orthogonalEdgeStyle;html=1;exitX=1;exitY=0.75;exitDx=0;exitDy=0;entryX=0;entryY=0.5;entryDx=0;entryDy=0;strokeColor=#1EA1C2;fontSize=12;fontColor=#FFFFFF;" edge="1" parent="1" source="7" target="124">
                    <mxGeometry relative="1" as="geometry"/>
                </mxCell>
                <mxCell id="7" value="&lt;b&gt;The sex of the patient is generated&lt;/b&gt;&lt;br&gt;&lt;br&gt;&lt;i style=&quot;&quot;&gt;&lt;font style=&quot;font-size: 8px;&quot;&gt;The sex of the patient is based on the AMPDS card&lt;/font&gt;&lt;/i&gt;" style="rounded=0;whiteSpace=wrap;html=1;" vertex="1" parent="1">
                    <mxGeometry x="280" y="340" width="230" height="60" as="geometry"/>
                </mxCell>
                <mxCell id="15" style="edgeStyle=orthogonalEdgeStyle;html=1;exitX=0.5;exitY=1;exitDx=0;exitDy=0;entryX=0.5;entryY=0;entryDx=0;entryDy=0;fontSize=8;" edge="1" parent="1" source="8" target="14">
                    <mxGeometry relative="1" as="geometry"/>
                </mxCell>
                <mxCell id="26" style="edgeStyle=orthogonalEdgeStyle;html=1;exitX=0;exitY=0.5;exitDx=0;exitDy=0;entryX=0;entryY=0.5;entryDx=0;entryDy=0;fontSize=8;" edge="1" parent="1" source="8" target="16">
                    <mxGeometry relative="1" as="geometry">
                        <Array as="points">
                            <mxPoint x="70" y="500"/>
                            <mxPoint x="70" y="810"/>
                        </Array>
                    </mxGeometry>
                </mxCell>
                <mxCell id="8" value="&lt;b&gt;The callsign group for the patient is generated&lt;/b&gt;&lt;br&gt;&lt;font style=&quot;font-size: 8px;&quot;&gt;&lt;br&gt;&lt;i style=&quot;&quot;&gt;&lt;font style=&quot;&quot;&gt;The callsign is based on the hour of day and the AMPDS card of the patient&lt;/font&gt;&lt;/i&gt;&lt;/font&gt;" style="rounded=0;whiteSpace=wrap;html=1;" vertex="1" parent="1">
                    <mxGeometry x="100" y="450" width="230" height="100" as="geometry"/>
                </mxCell>
                <mxCell id="17" style="edgeStyle=orthogonalEdgeStyle;html=1;exitX=0.5;exitY=1;exitDx=0;exitDy=0;fontSize=8;" edge="1" parent="1" source="14" target="16">
                    <mxGeometry relative="1" as="geometry"/>
                </mxCell>
                <mxCell id="19" style="edgeStyle=orthogonalEdgeStyle;html=1;exitX=1;exitY=0.25;exitDx=0;exitDy=0;entryX=0;entryY=0.5;entryDx=0;entryDy=0;fontSize=8;strokeColor=#1EA1C2;" edge="1" parent="1" source="14" target="18">
                    <mxGeometry relative="1" as="geometry"/>
                </mxCell>
                <mxCell id="14" value="&lt;b&gt;The 'preferred' vehicle type (car vs helicopter) is generated&lt;/b&gt;&lt;br&gt;&lt;font style=&quot;font-size: 8px;&quot;&gt;&lt;br&gt;&lt;i style=&quot;&quot;&gt;&lt;font style=&quot;&quot;&gt;This is based on the month in which the call occurs, and the callsign group generated in the previous step&lt;/font&gt;&lt;/i&gt;&lt;/font&gt;" style="rounded=0;whiteSpace=wrap;html=1;" vertex="1" parent="1">
                    <mxGeometry x="100" y="600" width="230" height="100" as="geometry"/>
                </mxCell>
                <mxCell id="31" style="edgeStyle=orthogonalEdgeStyle;html=1;exitX=1;exitY=0.25;exitDx=0;exitDy=0;entryX=0;entryY=0.5;entryDx=0;entryDy=0;fontSize=8;fontColor=#0d0d0d;strokeColor=#1EA1C2;" edge="1" parent="1" source="16" target="27">
                    <mxGeometry relative="1" as="geometry"/>
                </mxCell>
                <mxCell id="47" style="edgeStyle=orthogonalEdgeStyle;html=1;exitX=0.5;exitY=1;exitDx=0;exitDy=0;entryX=0.5;entryY=0;entryDx=0;entryDy=0;fontSize=8;fontColor=#0d0d0d;" edge="1" parent="1" source="16" target="46">
                    <mxGeometry relative="1" as="geometry"/>
                </mxCell>
                <mxCell id="16" value="&lt;b&gt;The model attempts to allocate the 'preferred' vehicle type that was selected from within the chosen callsign group&lt;/b&gt;&lt;font style=&quot;font-size: 8px;&quot;&gt;&lt;br&gt;&lt;/font&gt;" style="rounded=0;whiteSpace=wrap;html=1;" vertex="1" parent="1">
                    <mxGeometry x="100" y="760" width="230" height="100" as="geometry"/>
                </mxCell>
                <mxCell id="22" style="edgeStyle=orthogonalEdgeStyle;html=1;exitX=1;exitY=0.5;exitDx=0;exitDy=0;fontSize=8;strokeColor=#1EA1C2;" edge="1" parent="1" source="18" target="20">
                    <mxGeometry relative="1" as="geometry"/>
                </mxCell>
                <mxCell id="18" value="Historical data on the split between helicopter and car jobs per month is accessed" style="rounded=0;whiteSpace=wrap;html=1;fontSize=8;strokeColor=#1EA1C2;" vertex="1" parent="1">
                    <mxGeometry x="390" y="570" width="120" height="40" as="geometry"/>
                </mxCell>
                <mxCell id="23" style="edgeStyle=orthogonalEdgeStyle;html=1;exitX=0.5;exitY=1;exitDx=0;exitDy=0;entryX=0.5;entryY=0;entryDx=0;entryDy=0;fontSize=8;strokeColor=#1EA1C2;" edge="1" parent="1" source="20" target="21">
                    <mxGeometry relative="1" as="geometry"/>
                </mxCell>
                <mxCell id="20" value="The model looks up the proportion of jobs in the given month within the callsign group that used a helicopter, and the proportion that used a car" style="rounded=0;whiteSpace=wrap;html=1;fontSize=8;strokeColor=#1EA1C2;" vertex="1" parent="1">
                    <mxGeometry x="550" y="570" width="120" height="50" as="geometry"/>
                </mxCell>
                <mxCell id="25" style="edgeStyle=orthogonalEdgeStyle;html=1;exitX=0;exitY=0.5;exitDx=0;exitDy=0;entryX=1;entryY=0.75;entryDx=0;entryDy=0;fontSize=8;strokeColor=#1EA1C2;" edge="1" parent="1" source="21" target="14">
                    <mxGeometry relative="1" as="geometry"/>
                </mxCell>
                <mxCell id="21" value="We then randomly decide whether this call would be more likely to be using a car or a helicopter. This is like flipping a weighted coin - with the historical data being used to inform the likelihood of the options" style="rounded=0;whiteSpace=wrap;html=1;fontSize=8;strokeColor=#1EA1C2;" vertex="1" parent="1">
                    <mxGeometry x="470" y="650" width="200" height="50" as="geometry"/>
                </mxCell>
                <mxCell id="32" style="edgeStyle=orthogonalEdgeStyle;html=1;exitX=1;exitY=0.5;exitDx=0;exitDy=0;fontSize=8;fontColor=#0d0d0d;strokeColor=#1EA1C2;" edge="1" parent="1" source="27" target="28">
                    <mxGeometry relative="1" as="geometry"/>
                </mxCell>
                <mxCell id="27" value="The model now looks at which vehicles are currently not on a job" style="rounded=0;whiteSpace=wrap;html=1;fontSize=8;strokeColor=#1EA1C2;" vertex="1" parent="1">
                    <mxGeometry x="365" y="750" width="120" height="40" as="geometry"/>
                </mxCell>
                <mxCell id="34" style="edgeStyle=orthogonalEdgeStyle;html=1;exitX=1;exitY=0.25;exitDx=0;exitDy=0;fontSize=8;fontColor=#0d0d0d;strokeColor=#1EA1C2;" edge="1" parent="1" source="28" target="29">
                    <mxGeometry relative="1" as="geometry"/>
                </mxCell>
                <mxCell id="35" style="edgeStyle=orthogonalEdgeStyle;html=1;exitX=1;exitY=0.75;exitDx=0;exitDy=0;entryX=0;entryY=0.5;entryDx=0;entryDy=0;fontSize=8;fontColor=#0d0d0d;strokeColor=#1EA1C2;" edge="1" parent="1" source="28" target="33">
                    <mxGeometry relative="1" as="geometry"/>
                </mxCell>
                <mxCell id="37" style="edgeStyle=orthogonalEdgeStyle;html=1;exitX=0.75;exitY=1;exitDx=0;exitDy=0;entryX=0.75;entryY=0;entryDx=0;entryDy=0;fontSize=8;fontColor=#0d0d0d;dashed=1;strokeColor=#1EA1C2;" edge="1" parent="1" source="28" target="36">
                    <mxGeometry relative="1" as="geometry"/>
                </mxCell>
                <mxCell id="44" style="edgeStyle=orthogonalEdgeStyle;html=1;exitX=0.25;exitY=1;exitDx=0;exitDy=0;entryX=1;entryY=0.5;entryDx=0;entryDy=0;fontSize=8;fontColor=#0d0d0d;strokeColor=#1EA1C2;" edge="1" parent="1" source="28" target="16">
                    <mxGeometry relative="1" as="geometry"/>
                </mxCell>
                <mxCell id="28" value="It starts by trying to request the 'preferred' resource from the determined callsign group" style="rounded=0;whiteSpace=wrap;html=1;fontSize=8;strokeColor=#1EA1C2;" vertex="1" parent="1">
                    <mxGeometry x="510" y="750" width="120" height="40" as="geometry"/>
                </mxCell>
                <mxCell id="29" value="If&amp;nbsp; the callsign group consists of&amp;nbsp; a helicopter + a car&lt;br&gt;&lt;br&gt;[FILL IN]" style="rounded=0;whiteSpace=wrap;html=1;fontSize=8;strokeColor=#1EA1C2;" vertex="1" parent="1">
                    <mxGeometry x="660" y="740" width="150" height="60" as="geometry"/>
                </mxCell>
                <mxCell id="30" value="&lt;i&gt;CHECK IF THIS IS WORKING AS INTENDED&lt;br&gt;&lt;br&gt;I STARTED TO WRITE OUT WHAT i THINK SHOULD BE HAPPENING HERE FROM MY UNDERSTANDING, BUT NEEDS DISCUSSION&lt;br&gt;&lt;/i&gt;" style="shape=callout;whiteSpace=wrap;html=1;perimeter=calloutPerimeter;fontSize=8;fillColor=#FFB366;fontColor=#0d0d0d;fontStyle=1" vertex="1" parent="1">
                    <mxGeometry x="700" y="610" width="120" height="130" as="geometry"/>
                </mxCell>
                <mxCell id="33" value="If&amp;nbsp; the callsign group consists of just a car&lt;br&gt;&lt;br&gt;[FILL IN]" style="rounded=0;whiteSpace=wrap;html=1;fontSize=8;strokeColor=#1EA1C2;" vertex="1" parent="1">
                    <mxGeometry x="660" y="810" width="150" height="60" as="geometry"/>
                </mxCell>
                <mxCell id="39" style="edgeStyle=orthogonalEdgeStyle;html=1;exitX=0.5;exitY=1;exitDx=0;exitDy=0;entryX=0.5;entryY=0;entryDx=0;entryDy=0;fontSize=8;fontColor=#0d0d0d;dashed=1;strokeColor=#1EA1C2;" edge="1" parent="1" source="36" target="38">
                    <mxGeometry relative="1" as="geometry"/>
                </mxCell>
                <mxCell id="45" style="edgeStyle=orthogonalEdgeStyle;html=1;exitX=0;exitY=0.5;exitDx=0;exitDy=0;entryX=1;entryY=0.75;entryDx=0;entryDy=0;dashed=1;fontSize=8;fontColor=#0d0d0d;strokeColor=#1EA1C2;" edge="1" parent="1" source="36" target="16">
                    <mxGeometry relative="1" as="geometry"/>
                </mxCell>
                <mxCell id="36" value="If the preferred resource in the desired callsign group is unavailable but another resource within the callsign group is available, select that resource" style="rounded=0;whiteSpace=wrap;html=1;fontSize=8;strokeColor=#1EA1C2;" vertex="1" parent="1">
                    <mxGeometry x="420" y="850" width="220" height="70" as="geometry"/>
                </mxCell>
                <mxCell id="42" style="edgeStyle=orthogonalEdgeStyle;html=1;exitX=0.5;exitY=1;exitDx=0;exitDy=0;fontSize=8;fontColor=#0d0d0d;strokeColor=#6600CC;" edge="1" parent="1" source="38" target="41">
                    <mxGeometry relative="1" as="geometry"/>
                </mxCell>
                <mxCell id="38" value="If no resource is available from any callsign group, the call cannot be fulfilled and a standard land ambulance from outside of the air ambulance trust's provision is sent." style="rounded=0;whiteSpace=wrap;html=1;fontSize=8;strokeColor=#1EA1C2;" vertex="1" parent="1">
                    <mxGeometry x="420" y="960" width="220" height="70" as="geometry"/>
                </mxCell>
                <mxCell id="41" value="Patient exits the system" style="rhombus;whiteSpace=wrap;html=1;fontSize=12;fontColor=#0d0d0d;fillColor=#297EFF;fontStyle=1" vertex="1" parent="1">
                    <mxGeometry x="960" y="935" width="130" height="120" as="geometry"/>
                </mxCell>
                <mxCell id="63" style="edgeStyle=orthogonalEdgeStyle;html=1;exitX=0.5;exitY=1;exitDx=0;exitDy=0;dashed=1;dashPattern=1 1;fontSize=8;fontColor=#0d0d0d;" edge="1" parent="1" source="46" target="48">
                    <mxGeometry relative="1" as="geometry"/>
                </mxCell>
                <mxCell id="46" value="&lt;b&gt;The 'most ideal' available resource within the model is then sent to deal with the patient&lt;/b&gt;&lt;font style=&quot;font-size: 8px;&quot;&gt;&lt;br&gt;&lt;/font&gt;" style="rounded=0;whiteSpace=wrap;html=1;" vertex="1" parent="1">
                    <mxGeometry x="100" y="920" width="230" height="70" as="geometry"/>
                </mxCell>
                <mxCell id="55" style="edgeStyle=orthogonalEdgeStyle;html=1;exitX=0;exitY=0.5;exitDx=0;exitDy=0;entryX=1.006;entryY=0.377;entryDx=0;entryDy=0;entryPerimeter=0;fontSize=8;fontColor=#0d0d0d;dashed=1;dashPattern=1 1;" edge="1" parent="1" source="48" target="54">
                    <mxGeometry relative="1" as="geometry"/>
                </mxCell>
                <mxCell id="48" value="&lt;b&gt;The result of the call - in terms of whether the resource will be stood down, treat a patient, and convey a patient - is generated&lt;br&gt;&lt;/b&gt;&lt;font style=&quot;font-size: 8px;&quot;&gt;&lt;br&gt;&lt;i&gt;This is based on the selected callsign group, and what type of vehicle is being dispatched&lt;/i&gt;&lt;br&gt;&lt;/font&gt;" style="rounded=0;whiteSpace=wrap;html=1;" vertex="1" parent="1">
                    <mxGeometry x="100" y="1090" width="230" height="120" as="geometry"/>
                </mxCell>
                <mxCell id="49" value="Landed, but no patient contact" style="rounded=1;whiteSpace=wrap;html=1;fontSize=8;fillColor=#595d5f;strokeColor=#10739e;" vertex="1" parent="1">
                    <mxGeometry x="-120" y="1045" width="120" height="30" as="geometry"/>
                </mxCell>
                <mxCell id="50" value="Patient Conveyed" style="rounded=1;whiteSpace=wrap;html=1;fontSize=8;fillColor=#595d5f;strokeColor=#10739e;" vertex="1" parent="1">
                    <mxGeometry x="-120" y="1090" width="120" height="30" as="geometry"/>
                </mxCell>
                <mxCell id="51" value="Patient Treated (not conveyed)" style="rounded=1;whiteSpace=wrap;html=1;fontSize=8;fillColor=#595d5f;strokeColor=#10739e;" vertex="1" parent="1">
                    <mxGeometry x="-120" y="1140" width="120" height="30" as="geometry"/>
                </mxCell>
                <mxCell id="52" value="Stand Down Before Mobile" style="rounded=1;whiteSpace=wrap;html=1;fontSize=8;fillColor=#595d5f;strokeColor=#10739e;" vertex="1" parent="1">
                    <mxGeometry x="-120" y="1190" width="120" height="30" as="geometry"/>
                </mxCell>
                <mxCell id="53" value="Stand Down En Route" style="rounded=1;whiteSpace=wrap;html=1;fontSize=8;fillColor=#595d5f;strokeColor=#10739e;" vertex="1" parent="1">
                    <mxGeometry x="-120" y="1240" width="120" height="30" as="geometry"/>
                </mxCell>
                <mxCell id="56" style="edgeStyle=orthogonalEdgeStyle;html=1;exitX=1;exitY=0.25;exitDx=0;exitDy=0;entryX=0;entryY=0.5;entryDx=0;entryDy=0;fontSize=8;strokeColor=#1EA1C2;" edge="1" parent="1" target="58" source="48">
                    <mxGeometry relative="1" as="geometry">
                        <mxPoint x="350" y="1150" as="sourcePoint"/>
                    </mxGeometry>
                </mxCell>
                <mxCell id="57" style="edgeStyle=orthogonalEdgeStyle;html=1;exitX=1;exitY=0.5;exitDx=0;exitDy=0;fontSize=8;strokeColor=#1EA1C2;" edge="1" parent="1" source="58" target="60">
                    <mxGeometry relative="1" as="geometry"/>
                </mxCell>
                <mxCell id="58" value="Historical data on the split between job results per vehicle type and callsign group is accessed" style="rounded=0;whiteSpace=wrap;html=1;fontSize=8;strokeColor=#1EA1C2;" vertex="1" parent="1">
                    <mxGeometry x="410" y="1095" width="120" height="40" as="geometry"/>
                </mxCell>
                <mxCell id="59" style="edgeStyle=orthogonalEdgeStyle;html=1;exitX=0.5;exitY=1;exitDx=0;exitDy=0;entryX=0.5;entryY=0;entryDx=0;entryDy=0;fontSize=8;strokeColor=#1EA1C2;" edge="1" parent="1" source="60" target="62">
                    <mxGeometry relative="1" as="geometry"/>
                </mxCell>
                <mxCell id="60" value="The model looks up the proportion of jobs in the given month within the callsign group that used a helicopter, and the proportion that used a car" style="rounded=0;whiteSpace=wrap;html=1;fontSize=8;strokeColor=#1EA1C2;" vertex="1" parent="1">
                    <mxGeometry x="570" y="1095" width="120" height="50" as="geometry"/>
                </mxCell>
                <mxCell id="61" style="edgeStyle=orthogonalEdgeStyle;html=1;exitX=0;exitY=0.5;exitDx=0;exitDy=0;entryX=1;entryY=0.75;entryDx=0;entryDy=0;fontSize=8;strokeColor=#1EA1C2;" edge="1" parent="1" source="62" target="48">
                    <mxGeometry relative="1" as="geometry">
                        <mxPoint x="350" y="1200" as="targetPoint"/>
                    </mxGeometry>
                </mxCell>
                <mxCell id="62" value="We then randomly decide whether this call would be more likely to be using a car or a helicopter. This is like flipping a weighted coin - with the historical data being used to inform the likelihood of the options" style="rounded=0;whiteSpace=wrap;html=1;fontSize=8;strokeColor=#1EA1C2;" vertex="1" parent="1">
                    <mxGeometry x="490" y="1175" width="200" height="50" as="geometry"/>
                </mxCell>
                <mxCell id="67" style="edgeStyle=orthogonalEdgeStyle;html=1;exitX=0;exitY=0.5;exitDx=0;exitDy=0;fontSize=8;fontColor=#0d0d0d;dashed=1;dashPattern=1 1;" edge="1" parent="1" source="14" target="64">
                    <mxGeometry relative="1" as="geometry">
                        <mxPoint x="110" y="650" as="sourcePoint"/>
                        <mxPoint x="30.960000000000036" y="628.02" as="targetPoint"/>
                    </mxGeometry>
                </mxCell>
                <mxCell id="68" value="" style="rounded=0;whiteSpace=wrap;html=1;fontSize=8;" vertex="1" parent="1">
                    <mxGeometry x="-150" y="439" width="160" height="140" as="geometry"/>
                </mxCell>
                <mxCell id="69" value="70" style="rounded=1;whiteSpace=wrap;html=1;fontSize=8;fillColor=#595d5f;strokeColor=#10739e;" vertex="1" parent="1">
                    <mxGeometry x="-130" y="450" width="120" height="30" as="geometry"/>
                </mxCell>
                <mxCell id="70" value="71" style="rounded=1;whiteSpace=wrap;html=1;fontSize=8;fillColor=#595d5f;strokeColor=#10739e;" vertex="1" parent="1">
                    <mxGeometry x="-130" y="490" width="120" height="30" as="geometry"/>
                </mxCell>
                <mxCell id="71" value="72" style="rounded=1;whiteSpace=wrap;html=1;fontSize=8;fillColor=#595d5f;strokeColor=#10739e;" vertex="1" parent="1">
                    <mxGeometry x="-130" y="530" width="120" height="30" as="geometry"/>
                </mxCell>
                <mxCell id="72" style="edgeStyle=orthogonalEdgeStyle;html=1;exitX=0;exitY=0.25;exitDx=0;exitDy=0;fontSize=8;fontColor=#0d0d0d;dashed=1;dashPattern=1 1;entryX=1;entryY=0.25;entryDx=0;entryDy=0;" edge="1" parent="1" source="8" target="68">
                    <mxGeometry relative="1" as="geometry">
                        <mxPoint x="100" y="464.40999999999997" as="sourcePoint"/>
                        <mxPoint y="464" as="targetPoint"/>
                    </mxGeometry>
                </mxCell>
                <mxCell id="89" value="" style="group" vertex="1" connectable="0" parent="1">
                    <mxGeometry x="-740" y="-50" width="700" height="140" as="geometry"/>
                </mxCell>
                <mxCell id="73" value="" style="rounded=0;whiteSpace=wrap;html=1;fontSize=8;" vertex="1" parent="89">
                    <mxGeometry width="700" height="140" as="geometry"/>
                </mxCell>
                <mxCell id="74" value="6 -&amp;nbsp; Breathing Difficulty" style="rounded=1;whiteSpace=wrap;html=1;fontSize=8;fillColor=#595d5f;strokeColor=#10739e;" vertex="1" parent="89">
                    <mxGeometry x="33" y="10" width="120" height="30" as="geometry"/>
                </mxCell>
                <mxCell id="75" value="7 -&amp;nbsp; Burn Subject" style="rounded=1;whiteSpace=wrap;html=1;fontSize=8;fillColor=#595d5f;strokeColor=#10739e;" vertex="1" parent="89">
                    <mxGeometry x="33" y="50" width="120" height="30" as="geometry"/>
                </mxCell>
                <mxCell id="76" value="9 -&amp;nbsp; Potential Cardiac Arrest" style="rounded=1;whiteSpace=wrap;html=1;fontSize=8;fillColor=#595d5f;strokeColor=#10739e;" vertex="1" parent="89">
                    <mxGeometry x="33" y="90" width="120" height="30" as="geometry"/>
                </mxCell>
                <mxCell id="77" value="10 -&amp;nbsp; Chest Pain" style="rounded=1;whiteSpace=wrap;html=1;fontSize=8;fillColor=#595d5f;strokeColor=#10739e;" vertex="1" parent="89">
                    <mxGeometry x="163" y="10" width="120" height="30" as="geometry"/>
                </mxCell>
                <mxCell id="78" value="12 -&amp;nbsp; Seizures" style="rounded=1;whiteSpace=wrap;html=1;fontSize=8;fillColor=#595d5f;strokeColor=#10739e;" vertex="1" parent="89">
                    <mxGeometry x="163" y="50" width="120" height="30" as="geometry"/>
                </mxCell>
                <mxCell id="79" value="14 -&amp;nbsp; Drowning" style="rounded=1;whiteSpace=wrap;html=1;fontSize=8;fillColor=#595d5f;strokeColor=#10739e;" vertex="1" parent="89">
                    <mxGeometry x="163" y="90" width="120" height="30" as="geometry"/>
                </mxCell>
                <mxCell id="80" value="17 -&amp;nbsp; Falls" style="rounded=1;whiteSpace=wrap;html=1;fontSize=8;fillColor=#595d5f;strokeColor=#10739e;" vertex="1" parent="89">
                    <mxGeometry x="293" y="10" width="120" height="30" as="geometry"/>
                </mxCell>
                <mxCell id="81" value="21 -&amp;nbsp; Hemmorrhage" style="rounded=1;whiteSpace=wrap;html=1;fontSize=8;fillColor=#595d5f;strokeColor=#10739e;" vertex="1" parent="89">
                    <mxGeometry x="293" y="50" width="120" height="30" as="geometry"/>
                </mxCell>
                <mxCell id="82" value="23 -&amp;nbsp; Overdose" style="rounded=1;whiteSpace=wrap;html=1;fontSize=8;fillColor=#595d5f;strokeColor=#10739e;" vertex="1" parent="89">
                    <mxGeometry x="293" y="90" width="120" height="30" as="geometry"/>
                </mxCell>
                <mxCell id="83" value="25 - Psychiatric Problem" style="rounded=1;whiteSpace=wrap;html=1;fontSize=8;fillColor=#595d5f;strokeColor=#10739e;" vertex="1" parent="89">
                    <mxGeometry x="426" y="10" width="120" height="30" as="geometry"/>
                </mxCell>
                <mxCell id="84" value="27 - Stab, Gunshot or Penetrating Trauma (S, G or P)" style="rounded=1;whiteSpace=wrap;html=1;fontSize=8;fillColor=#595d5f;strokeColor=#10739e;" vertex="1" parent="89">
                    <mxGeometry x="426" y="50" width="120" height="30" as="geometry"/>
                </mxCell>
                <mxCell id="85" value="28 - Stroke" style="rounded=1;whiteSpace=wrap;html=1;fontSize=8;fillColor=#595d5f;strokeColor=#10739e;" vertex="1" parent="89">
                    <mxGeometry x="426" y="90" width="120" height="30" as="geometry"/>
                </mxCell>
                <mxCell id="86" value="29 -&amp;nbsp; Traffic Collision" style="rounded=1;whiteSpace=wrap;html=1;fontSize=8;fillColor=#595d5f;strokeColor=#10739e;" vertex="1" parent="89">
                    <mxGeometry x="560" y="10" width="120" height="30" as="geometry"/>
                </mxCell>
                <mxCell id="87" value="30 - Traumatic Injuries (specific)" style="rounded=1;whiteSpace=wrap;html=1;fontSize=8;fillColor=#595d5f;strokeColor=#10739e;" vertex="1" parent="89">
                    <mxGeometry x="560" y="51" width="120" height="30" as="geometry"/>
                </mxCell>
                <mxCell id="88" value="31 -&amp;nbsp; Subject Unconscious" style="rounded=1;whiteSpace=wrap;html=1;fontSize=8;fillColor=#595d5f;strokeColor=#10739e;" vertex="1" parent="89">
                    <mxGeometry x="560" y="90" width="120" height="30" as="geometry"/>
                </mxCell>
                <mxCell id="94" style="edgeStyle=orthogonalEdgeStyle;html=1;exitX=0;exitY=0.5;exitDx=0;exitDy=0;entryX=1;entryY=0.5;entryDx=0;entryDy=0;strokeColor=#1EA1C2;fontSize=8;fontColor=#0d0d0d;" edge="1" parent="1" source="91" target="92">
                    <mxGeometry relative="1" as="geometry"/>
                </mxCell>
                <mxCell id="91" value="Historical data on the split of AMPDS cards per hour is accessed" style="rounded=0;whiteSpace=wrap;html=1;fontSize=8;strokeColor=#1EA1C2;" vertex="1" parent="1">
                    <mxGeometry x="-160" y="140" width="120" height="40" as="geometry"/>
                </mxCell>
                <mxCell id="96" style="edgeStyle=orthogonalEdgeStyle;html=1;exitX=0;exitY=0.5;exitDx=0;exitDy=0;entryX=0;entryY=0.5;entryDx=0;entryDy=0;strokeColor=#1EA1C2;fontSize=8;fontColor=#0d0d0d;" edge="1" parent="1" source="92" target="93">
                    <mxGeometry relative="1" as="geometry"/>
                </mxCell>
                <mxCell id="92" value="The model looks up the split of AMPDS cards for the hour in which the call has arrived" style="rounded=0;whiteSpace=wrap;html=1;fontSize=8;strokeColor=#1EA1C2;" vertex="1" parent="1">
                    <mxGeometry x="-310" y="135" width="120" height="50" as="geometry"/>
                </mxCell>
                <mxCell id="97" style="edgeStyle=orthogonalEdgeStyle;html=1;exitX=1;exitY=0.5;exitDx=0;exitDy=0;entryX=0;entryY=0.25;entryDx=0;entryDy=0;strokeColor=#1EA1C2;fontSize=8;fontColor=#0d0d0d;" edge="1" parent="1" source="93" target="4">
                    <mxGeometry relative="1" as="geometry">
                        <Array as="points">
                            <mxPoint x="-5" y="230"/>
                            <mxPoint x="-5" y="220"/>
                            <mxPoint x="100" y="220"/>
                        </Array>
                    </mxGeometry>
                </mxCell>
                <mxCell id="93" value="We then randomly decide what AMPDS card this call is relating to. This is like rolling a weighted 15-sided dice - with the historical data being used to inform the likelihood of the options" style="rounded=0;whiteSpace=wrap;html=1;fontSize=8;strokeColor=#1EA1C2;" vertex="1" parent="1">
                    <mxGeometry x="-310" y="205" width="200" height="50" as="geometry"/>
                </mxCell>
                <mxCell id="98" value="AMPDS Cards" style="text;html=1;strokeColor=none;fillColor=none;align=center;verticalAlign=middle;whiteSpace=wrap;rounded=0;fontSize=14;fontColor=#FFFFFF;fontStyle=1" vertex="1" parent="1">
                    <mxGeometry x="-505" y="-80" width="195" height="30" as="geometry"/>
                </mxCell>
                <mxCell id="99" value="Callsign Groups" style="text;html=1;strokeColor=none;fillColor=none;align=center;verticalAlign=middle;whiteSpace=wrap;rounded=0;fontSize=14;fontColor=#FFFFFF;fontStyle=1" vertex="1" parent="1">
                    <mxGeometry x="-160" y="409" width="195" height="30" as="geometry"/>
                </mxCell>
                <mxCell id="101" value="" style="group" vertex="1" connectable="0" parent="1">
                    <mxGeometry x="-425" y="680" width="160" height="120" as="geometry"/>
                </mxCell>
                <mxCell id="64" value="" style="rounded=0;whiteSpace=wrap;html=1;fontSize=8;" vertex="1" parent="101">
                    <mxGeometry width="160" height="120" as="geometry"/>
                </mxCell>
                <mxCell id="65" value="Helicopter" style="rounded=1;whiteSpace=wrap;html=1;fontSize=8;fillColor=#595d5f;strokeColor=#10739e;" vertex="1" parent="101">
                    <mxGeometry x="20" y="20" width="120" height="30" as="geometry"/>
                </mxCell>
                <mxCell id="66" value="Car" style="rounded=1;whiteSpace=wrap;html=1;fontSize=8;fillColor=#595d5f;strokeColor=#10739e;" vertex="1" parent="101">
                    <mxGeometry x="20" y="70" width="120" height="30" as="geometry"/>
                </mxCell>
                <mxCell id="102" value="Vehicle Types" style="text;html=1;strokeColor=none;fillColor=none;align=center;verticalAlign=middle;whiteSpace=wrap;rounded=0;fontSize=14;fontColor=#FFFFFF;fontStyle=1" vertex="1" parent="1">
                    <mxGeometry x="-440" y="650" width="195" height="30" as="geometry"/>
                </mxCell>
                <mxCell id="103" value="Call Results" style="text;html=1;strokeColor=none;fillColor=none;align=center;verticalAlign=middle;whiteSpace=wrap;rounded=0;fontSize=14;fontColor=#FFFFFF;fontStyle=1" vertex="1" parent="1">
                    <mxGeometry x="-160" y="1000" width="195" height="30" as="geometry"/>
                </mxCell>
                <mxCell id="104" value="&lt;span style=&quot;font-weight: normal;&quot;&gt;&lt;font style=&quot;font-size: 9px;&quot;&gt;In the future, the model may allow for additional callsign groups to be defined&lt;/font&gt;&lt;/span&gt;" style="text;html=1;strokeColor=none;fillColor=none;align=center;verticalAlign=middle;whiteSpace=wrap;rounded=0;fontSize=14;fontColor=#FFFFFF;fontStyle=3" vertex="1" parent="1">
                    <mxGeometry x="-158.75" y="579" width="177.5" height="30" as="geometry"/>
                </mxCell>
                <mxCell id="105" value="" style="rounded=0;whiteSpace=wrap;html=1;fontSize=8;" vertex="1" parent="1">
                    <mxGeometry x="630" y="210" width="160" height="120" as="geometry"/>
                </mxCell>
                <mxCell id="106" value="Male" style="rounded=1;whiteSpace=wrap;html=1;fontSize=8;fillColor=#595d5f;strokeColor=#10739e;" vertex="1" parent="1">
                    <mxGeometry x="650" y="230" width="120" height="30" as="geometry"/>
                </mxCell>
                <mxCell id="107" value="Female" style="rounded=1;whiteSpace=wrap;html=1;fontSize=8;fillColor=#595d5f;strokeColor=#10739e;" vertex="1" parent="1">
                    <mxGeometry x="650" y="280" width="120" height="30" as="geometry"/>
                </mxCell>
                <mxCell id="108" value="Patient Sex" style="text;html=1;strokeColor=none;fillColor=none;align=center;verticalAlign=middle;whiteSpace=wrap;rounded=0;fontSize=14;fontColor=#FFFFFF;fontStyle=1" vertex="1" parent="1">
                    <mxGeometry x="615" y="180" width="195" height="30" as="geometry"/>
                </mxCell>
                <mxCell id="115" style="edgeStyle=orthogonalEdgeStyle;html=1;exitX=0;exitY=0.25;exitDx=0;exitDy=0;strokeColor=#1EA1C2;fontSize=8;fontColor=#0d0d0d;" edge="1" parent="1" target="117">
                    <mxGeometry relative="1" as="geometry">
                        <mxPoint x="-30" y="369" as="sourcePoint"/>
                    </mxGeometry>
                </mxCell>
                <mxCell id="116" style="edgeStyle=orthogonalEdgeStyle;html=1;exitX=0;exitY=0.5;exitDx=0;exitDy=0;entryX=1;entryY=0.5;entryDx=0;entryDy=0;strokeColor=#1EA1C2;fontSize=8;fontColor=#0d0d0d;" edge="1" parent="1" source="117" target="119">
                    <mxGeometry relative="1" as="geometry"/>
                </mxCell>
                <mxCell id="117" value="Historical data on the age of patients per AMPDS card is accessed" style="rounded=0;whiteSpace=wrap;html=1;fontSize=8;strokeColor=#1EA1C2;" vertex="1" parent="1">
                    <mxGeometry x="-290" y="294" width="120" height="40" as="geometry"/>
                </mxCell>
                <mxCell id="118" style="edgeStyle=orthogonalEdgeStyle;html=1;exitX=0;exitY=0.5;exitDx=0;exitDy=0;entryX=0;entryY=0.5;entryDx=0;entryDy=0;strokeColor=#1EA1C2;fontSize=8;fontColor=#0d0d0d;" edge="1" parent="1" source="119" target="121">
                    <mxGeometry relative="1" as="geometry"/>
                </mxCell>
                <mxCell id="119" value="The model looks up the distribution of ages for patients in the data for that AMPDS card&amp;nbsp;&amp;nbsp;" style="rounded=0;whiteSpace=wrap;html=1;fontSize=8;strokeColor=#1EA1C2;" vertex="1" parent="1">
                    <mxGeometry x="-440" y="289" width="120" height="50" as="geometry"/>
                </mxCell>
                <mxCell id="137" style="edgeStyle=orthogonalEdgeStyle;html=1;exitX=1;exitY=0.5;exitDx=0;exitDy=0;entryX=0;entryY=0.75;entryDx=0;entryDy=0;strokeColor=#1EA1C2;fontSize=12;fontColor=#FFFFFF;" edge="1" parent="1" source="121" target="6">
                    <mxGeometry relative="1" as="geometry"/>
                </mxCell>
                <mxCell id="121" value="We then randomly decide what AMPDS card this call is relating to. This is putting an large collection of numbered balls into a bag, with more balls with a given number on them if we historically had a large number of patients with that age. We then reach in and randomly pick out one of the balls, and use the number on it as our patient's age." style="rounded=0;whiteSpace=wrap;html=1;fontSize=8;strokeColor=#1EA1C2;" vertex="1" parent="1">
                    <mxGeometry x="-440" y="359" width="200" height="81" as="geometry"/>
                </mxCell>
                <mxCell id="136" style="edgeStyle=orthogonalEdgeStyle;html=1;exitX=1;exitY=0.5;exitDx=0;exitDy=0;strokeColor=#1EA1C2;fontSize=12;fontColor=#FFFFFF;" edge="1" parent="1" source="124" target="126">
                    <mxGeometry relative="1" as="geometry"/>
                </mxCell>
                <mxCell id="124" value="Historical data on the sex of patients per AMPDS card is accessed" style="rounded=0;whiteSpace=wrap;html=1;fontSize=8;strokeColor=#1EA1C2;" vertex="1" parent="1">
                    <mxGeometry x="560" y="399" width="120" height="40" as="geometry"/>
                </mxCell>
                <mxCell id="130" style="edgeStyle=orthogonalEdgeStyle;html=1;exitX=1;exitY=0.5;exitDx=0;exitDy=0;entryX=1;entryY=0.5;entryDx=0;entryDy=0;strokeColor=#1EA1C2;fontSize=12;fontColor=#FFFFFF;" edge="1" parent="1" source="126" target="128">
                    <mxGeometry relative="1" as="geometry"/>
                </mxCell>
                <mxCell id="132" style="edgeStyle=orthogonalEdgeStyle;html=1;exitX=0;exitY=0.5;exitDx=0;exitDy=0;entryX=0.75;entryY=1;entryDx=0;entryDy=0;strokeColor=#1EA1C2;fontSize=12;fontColor=#FFFFFF;" edge="1" parent="1" source="128" target="7">
                    <mxGeometry relative="1" as="geometry"/>
                </mxCell>
                <mxCell id="128" value="We then randomly decide what sex of patient this call is relating to. This is like flipping a weighted coin - with the historical data being used to inform the likelihood of the options" style="rounded=0;whiteSpace=wrap;html=1;fontSize=8;strokeColor=#1EA1C2;" vertex="1" parent="1">
                    <mxGeometry x="660" y="460" width="200" height="50" as="geometry"/>
                </mxCell>
                <mxCell id="126" value="The model looks up the proportion of calls in the given card for male patients, and the proportion for female patients" style="rounded=0;whiteSpace=wrap;html=1;fontSize=8;strokeColor=#1EA1C2;" vertex="1" parent="1">
                    <mxGeometry x="790" y="360" width="120" height="50" as="geometry"/>
                </mxCell>
            </root>
        </mxGraphModel>
    </diagram>
</mxfile>
